<svg height="16" viewBox="0 0 16 16" width="16" xmlns="http://www.w3.org/2000/svg"><path d="m155.516984.09444435c-1.252735.05652375-2.338541.36282138-3.215303 1.2358842-.879824.87764583-1.182288 1.96763765-1.238952 3.20734102-.035223.77376434-.241205 6.61938973.356065 8.15240553.402774 1.0342319 1.196071 1.8293836 2.239762 2.233452.487005.189431 1.042925.3177552 1.858428.3551831 6.818832.3085891 9.346509.1405455 10.412406-2.5886351.189136-.4857988.31931-1.0411064.355299-1.8545902.311652-6.83631864-.050538-8.31815755-1.238952-9.50515635-.942615-.94028025-2.051393-1.58037356-9.528753-1.2358842m.06279 13.80936375c-.746587-.0336087-1.151659-.1581138-1.421962-.2627591-.679968-.2642867-1.190711-.7730005-1.453356-1.448994-.454844-1.1648476-.303995-6.69730081-.263412-7.59251484.039818-.87688199.217468-1.67814437.836178-2.2968503.765731-.76383449 1.755055-1.13811339 8.491188-.83410727.879058.0397194 1.68231.216929 2.302552.83410727.76573.76383449 1.145533 1.76063849.836178 8.47092444-.033693.7447387-.158507 1.1488071-.263412 1.4184407-.692986 1.7759152-2.287237 2.0226337-9.063954 1.7117531m6.262911-10.29496127c0 .50565843.411198.91660139.918877.91660139.50768 0 .919643-.41094296.919643-.91660139s-.411963-.91660138-.919643-.91660138c-.507679 0-.918877.41094295-.918877.91660138m-7.10062 4.0773485c0 2.16623462 1.760415 3.92229007 3.932027 3.92229007s3.932027-1.75605545 3.932027-3.92229007c0-2.16623461-1.760415-3.92152626-3.932027-3.92152626s-3.932027 1.75529165-3.932027 3.92152626m1.379847 0c0-1.40545545 1.14247-2.54586035 2.55218-2.54586035s2.55218 1.1404049 2.55218 2.54586035c0 1.4062193-1.14247 2.54662417-2.55218 2.54662417s-2.55218-1.14040487-2.55218-2.54662417" fill-rule="evenodd" transform="translate(-151)"/></svg>