<svg height="21" viewBox="0 0 38 21" width="38" xmlns="http://www.w3.org/2000/svg"><path d="m850.705 57.961h7.872v.143c0 3.262-.973 5.923-2.834 7.725-1.975 1.917-4.322 2.432-6.498 2.432-2.777 0-4.752-.801-6.498-2.604-1.86-1.916-2.834-4.463-2.834-7.21 0-2.975 1.202-5.55 2.777-7.123 1.631-1.66 4.236-2.862 7.185-2.862 1.717 0 3.492.372 4.98 1.202 1.575.887 2.548 2.003 3.092 2.861l-2.318 1.631c-.573-.801-1.432-1.66-2.348-2.174-1.059-.63-2.204-.83-3.378-.83-2.49 0-4.093 1.03-5.038 1.974-1.26 1.259-2.032 3.29-2.032 5.35 0 1.917.715 3.834 1.975 5.179 1.317 1.402 2.948 1.917 4.78 1.917 1.66 0 3.035-.487 4.266-1.688 1.059-1.03 1.488-2.146 1.603-3.233h-4.752zm-23.238 2.575h5.78l-2.833-6.466zm8.955 7.353-2.002-4.606h-8.154l-2.089 4.606h-3.147l9.499-20.199 9.04 20.199z" transform="translate(-821 -48)"/></svg>