<svg height="13" viewBox="0 0 16 13" width="16" xmlns="http://www.w3.org/2000/svg"><path d="m81.279064 14.4376806c5.714613 0 8.8403481-4.73761037 8.8403481-8.84561032 0-.13486241 0-.26896716-.0090864-.40231427.6080342-.43943931 1.132776-.98495019 1.549995-1.60925708-.566388.25154113-1.1683646.4167097-1.7839708.48944448.6481659-.3886765 1.1335332-.99934561 1.3659946-1.71987456-.6103058.36215861-1.2774019.617488-1.9732717.75462337-1.1766938-1.25164439-3.1446651-1.31225671-4.3963221-.13486241-.8064215.7591693-1.1494346 1.89110437-.8988003 2.97076131-2.4980136-.12577056-4.8256564-1.30619548-6.403668-3.24806267-.8245943 1.42060124-.4028321 3.23745551.9624054 4.14967092-.4944538-.01439543-.9783067-.14774253-1.4106697-.3886765v.03939801c.0007572 1.47969825 1.0434261 2.75407226 2.4927131 3.04728436-.4573507.12501291-.9374176.1431966-1.4023404.05303578.4066181 1.26679748 1.5734684 2.13431128 2.9023601 2.15931388-1.1002164.8652409-2.4593962 1.3349863-3.8587078 1.333471-.2468483-.0007576-.4936966-.0151531-.7397876-.0447016 1.4212705.9122154 3.0742452 1.3963563 4.7628085 1.3940834" fill-rule="evenodd" transform="translate(-76 -2)"/></svg>